<svg width="197" height="97" viewBox="0 0 197 97" fill="none" xmlns="http://www.w3.org/2000/svg">
<path d="M11.0454 10.2273L3.68181 20.0455L1.22726 29.0455V42.1364L3.68181 62.1819L5.31817 76.5L11.0454 84.2728L18.8182 87.5455L36.4091 85.9091L71.5909 81.8182L110.045 77.7273L133.773 76.5L149.318 77.7273L157.909 92.8637L162.409 81.8182L165.273 78.9546L182.455 77.7273L191.864 72.8182L193.091 57.2728L194.727 27L193.091 7.36368L188.591 2.45459H180.409H145.227H108.409H71.5909L26.1818 4.09095L11.0454 10.2273Z" fill="white" stroke="black" stroke-width="0.818182"/>
<path d="M16.891 88.2031C19.4316 88.43 21.9721 88.6568 24.5832 88.5056C26.277 88.43 28.0412 88.2787 29.7349 88.3544C31.0052 88.3544 32.3461 88.43 33.5458 87.9007C34.5337 87.5226 35.5217 87.825 36.5097 87.7494C40.1794 87.447 43.708 86.6152 47.3776 86.4639C49.9182 86.3127 52.5293 85.859 55.0699 85.5565C57.1164 85.3297 59.163 84.9516 61.2095 84.8003C63.3267 84.6491 65.3026 84.0442 67.3492 83.8173C69.184 83.5905 71.0189 83.288 72.8537 83.288C76.594 83.2124 80.2637 82.7587 83.9334 82.0781C89.0145 81.1707 94.0956 81.0951 99.1767 80.6414C101.435 80.4146 103.623 80.2633 105.881 79.8096C107.998 79.3559 110.115 79.2047 112.232 78.9022C117.455 78.146 122.677 78.5997 127.899 78.5241C131.78 78.4485 135.662 78.5997 139.543 78.5241C142.225 78.4485 144.907 78.5998 147.588 78.4485C148.647 78.3729 149.282 78.751 149.847 79.8852C150.976 82.2294 151.611 84.8004 152.599 87.2201C153.375 89.1861 154.01 91.1522 155.21 92.8914C155.704 93.5719 155.916 94.4037 156.339 95.1599C156.904 96.2185 157.68 96.3698 158.456 95.4624C159.162 94.7062 159.515 93.8744 159.726 92.8158C160.362 88.7325 161.632 84.8004 163.608 81.2464C164.031 80.4902 164.666 80.0365 165.725 80.0365C166.995 80.0365 168.195 80.339 169.395 80.4902C171.3 80.6414 173.206 80.4146 175.111 80.4902C175.958 80.5658 176.805 80.4902 177.581 80.0365C178.004 79.8096 178.428 79.734 178.922 79.8096C181.886 79.9609 184.779 79.3559 187.461 78.146C188.943 77.4655 190.566 76.7093 191.695 75.0458C192.471 73.9871 193.53 73.1553 194.094 71.8698C194.659 70.7356 195.012 69.6013 194.941 68.3915C194.73 66.1986 195.082 64.0813 195.224 61.8884C195.365 59.9223 195.153 57.8807 195.294 55.9146C195.435 53.1168 195.153 50.2434 195.647 47.4455C195.788 46.5381 195.718 45.6307 195.788 44.7233C195.859 42.606 195.788 40.5644 196.07 38.4471C196.141 38.069 196 37.6153 195.929 37.2372C195.788 36.6323 195.718 36.0273 195.788 35.4224C196.212 32.1709 195.929 28.9193 196 25.7434C196.07 22.87 196 20.0721 196.353 17.1987C196.706 14.5521 196.423 11.8299 195.859 9.10766C194.8 4.19255 190.848 0.941008 186.473 0.714157C180.757 0.411688 175.04 0.336076 169.324 0.411693C165.019 0.48731 160.644 0.487301 156.339 0.26045C149.423 -0.117636 142.507 0.109225 135.591 0.0336076C129.875 0.0336076 124.229 -0.0420095 118.513 0.0336076C113.785 0.109225 108.986 0.109225 104.258 0.411693C101.929 0.562927 99.6707 0.487301 97.3418 0.638535C94.519 0.865386 91.7667 0.638535 88.9439 0.638535C85.9093 0.714152 82.8748 0.562923 79.8402 0.714157C75.1826 0.941008 70.5249 0.8654 65.8672 1.24349C62.0564 1.62157 58.2456 1.69719 54.3642 1.69719C51.4708 1.69719 48.5068 1.92403 45.6134 1.92403C43.214 1.99965 40.744 1.99964 38.3446 1.77279C36.8626 1.69717 35.4512 1.99965 33.9692 1.92403C31.0758 1.7728 28.1824 1.92404 25.3595 2.45336C23.2424 2.90707 20.9841 2.90707 19.0787 4.34379C17.6673 4.34379 16.6087 5.32681 15.2679 5.78051C12.6568 6.6123 10.6808 8.42711 8.7048 10.3175C7.43452 11.5274 6.23483 12.7373 5.38798 14.3252C4.47056 16.0644 3.55313 17.8792 2.84742 19.7697C1.29486 23.6261 0.942013 27.7851 0.377438 31.8684C0.0245934 34.4394 -0.0459785 37.086 0.0245934 39.7326C0.09515 41.9255 0.448009 44.1184 0.800869 46.3113C1.15373 48.5798 1.436 50.8483 1.36543 53.1168C1.22429 57.2757 1.50656 61.4347 2.28285 65.518C2.70626 67.7865 2.42399 70.2063 3.05912 72.3992C3.76483 74.8945 4.04712 77.4655 5.52911 79.734C6.23481 80.8683 6.7288 82.1538 7.57565 83.2124C9.76335 86.0102 12.6568 87.2957 15.903 87.9763C16.0442 87.2957 15.0562 87.447 15.0562 86.7664C15.6913 86.3127 16.6087 86.842 17.0322 86.1615C17.4556 85.4809 17.9496 85.3297 18.5847 85.7078C19.0081 85.9346 19.1493 85.6321 19.2199 85.1784C17.2439 84.9516 15.3385 84.4979 13.4331 83.8173C13.4331 84.3466 13.3625 84.9516 12.6568 84.6491C12.0922 84.4223 11.8805 83.8929 12.4451 83.288C10.4691 81.7757 8.98709 79.8096 7.78738 77.4655C6.79939 75.4995 6.09369 73.3822 5.67025 71.1893C5.38797 69.6769 5.31739 68.089 5.17625 66.501C5.10568 65.518 5.17625 64.4594 4.89398 63.552C4.54112 62.1908 4.3294 60.8297 4.25883 59.4686C4.1177 56.6708 4.3294 53.7974 4.04712 50.9995C3.8354 49.0335 4.18827 46.9918 3.6237 45.0258C3.412 44.2696 2.98857 43.4378 2.918 42.6816C2.84742 40.2619 2.84741 37.7665 2.70626 35.2712C2.63569 33.6832 2.84741 32.0952 2.98855 30.5073C3.1297 28.39 3.27084 26.1971 4.11769 24.2311C4.39997 23.6261 4.47056 22.87 4.68226 22.1138C5.38798 19.316 6.37596 16.6694 8.35194 14.5521C9.4105 13.4178 10.6808 12.6617 11.7394 11.6786C12.2333 11.2249 12.6568 10.6956 13.2919 10.3175C16.0442 8.65396 19.0787 7.67093 22.1133 6.76352C22.9601 6.53667 23.8775 6.15859 24.7244 6.08297C29.5232 5.55365 34.322 5.17557 39.1914 5.3268C39.8971 5.3268 40.5323 5.55365 41.1674 5.55365C43.1434 5.47803 45.1899 5.25119 47.1659 5.3268C52.0353 5.40242 56.8341 5.17557 61.633 4.94872C65.8672 4.79748 70.0309 4.4194 74.2651 4.26817C83.2276 4.04132 92.1902 4.26817 101.082 3.89008C104.046 3.73885 107.01 3.43638 109.974 3.512C113.573 3.66323 117.172 3.43638 120.771 3.43638C122.747 3.43638 124.723 3.66322 126.629 3.36075C128.04 3.1339 129.452 3.66323 130.792 3.43638C132.557 3.13391 134.392 3.36077 136.156 3.20953C138.908 2.98268 141.66 3.36076 144.413 3.43638C148.576 3.51199 152.74 3.512 156.904 3.58762C160.644 3.66324 164.384 3.81447 168.195 3.89008C169.889 3.89008 171.582 3.81447 173.276 3.89008C175.323 3.9657 177.44 3.81446 179.486 4.19255C181.674 4.57063 183.862 4.04131 186.049 4.11693C189.225 4.26816 192.189 6.99038 192.471 10.3175C192.683 12.4348 192.612 14.5521 192.754 16.6694C193.036 19.9965 192.33 23.3237 192.824 26.5752C192.965 27.407 192.401 28.1632 192.542 29.0706C192.754 30.2048 192.612 31.2635 192.542 32.3977C192.401 34.515 192.401 36.6323 192.401 38.6739C192.401 41.1693 192.401 43.7403 192.33 46.2356C192.26 48.8066 191.836 51.3776 191.836 53.9486C191.907 57.5782 191.766 61.2078 191.766 64.8375C191.766 65.9717 190.637 67.1059 191.836 68.1646C191.977 68.2402 191.695 68.467 191.624 68.5427C191.342 68.9964 191.131 69.4501 190.919 69.9794C189.719 72.626 187.814 74.2896 185.203 75.197C184.215 75.4995 183.227 75.5751 182.239 75.9532C180.121 76.7094 177.863 77.0874 175.675 77.2386C172.5 77.3899 169.254 77.5411 166.148 76.6337C165.16 76.4069 164.314 76.8606 163.467 77.3899C161.561 78.5241 160.714 80.5658 159.797 82.4562C158.809 84.4223 158.033 86.5396 157.609 88.8081C157.539 89.1105 157.398 89.413 157.115 89.4886C156.833 89.4886 156.621 89.1861 156.551 88.8837C155.845 86.842 154.998 84.876 154.293 82.8343C153.587 80.717 152.881 78.5242 151.54 76.7094C150.835 75.7263 149.847 75.0458 148.788 75.2726C147.447 75.4995 146.106 75.197 144.765 75.2726C140.602 75.3482 136.438 75.2726 132.274 75.3482C126.558 75.4238 120.771 75.0458 115.055 75.6507C112.091 75.9532 109.127 76.2556 106.234 76.785C103.34 77.3143 100.447 77.5411 97.5535 77.6167C92.7547 77.8436 87.9559 78.3729 83.1571 79.0535C80.5459 79.4315 77.9348 80.0365 75.3237 79.9609C74.4769 79.9609 73.63 79.9609 72.7832 80.0365C68.5489 80.5658 64.3146 81.0195 60.0804 81.7757C56.0579 82.4562 51.8942 82.6831 47.8716 83.2124C43.6374 83.7417 39.4031 84.1954 35.1689 84.7247C33.4046 84.9516 31.7109 85.0272 29.9466 85.2541C27.9707 85.5565 25.9241 85.6321 23.8775 85.4809C22.6073 85.4053 21.4076 85.3297 20.2079 85.4809C20.2784 86.0102 19.9256 86.3127 19.5727 86.6152C18.867 87.2201 17.8085 87.5226 16.891 88.2031ZM4.68226 68.4671C3.97656 68.089 3.97654 67.4084 3.41198 67.2572C3.05912 67.1816 3.1297 66.6523 3.1297 66.3498C3.1297 66.0473 3.20027 65.7448 3.55313 65.6692C3.90599 65.5936 4.04712 65.8205 4.18826 66.123C4.39997 66.7279 4.75283 67.4084 4.68226 68.4671ZM14.1388 86.9933C13.6448 86.6152 13.2213 86.4639 13.3625 85.9346C13.8565 85.9346 13.9976 86.3127 14.1388 86.9933ZM3.76483 64.2325C3.97654 64.2325 4.04712 64.3837 4.04712 64.535C3.97654 64.6862 3.90597 64.8374 3.76483 64.9131C3.55313 64.9887 3.55313 64.7618 3.55313 64.6106C3.48256 64.4594 3.55313 64.3082 3.76483 64.2325ZM4.25883 69.5257C4.25883 69.2989 4.3294 69.2232 4.47055 69.072C4.61169 68.9964 4.68225 69.072 4.75282 69.2232C4.82339 69.4501 4.75282 69.7526 4.47055 69.7526C4.39997 69.7526 4.3294 69.6013 4.25883 69.5257Z" fill="#77C7E3"/>
<path d="M16.891 88.2032C17.7378 87.447 18.867 87.2201 19.7138 86.464C20.0667 86.1615 20.4195 85.859 20.349 85.3297C19.9961 85.2541 19.6433 85.2541 19.361 85.1785C19.2904 85.5566 19.1493 85.859 18.7258 85.7078C18.0907 85.4053 17.5967 85.5566 17.1733 86.1615C16.6793 86.9177 15.7619 86.3128 15.1973 86.7665C15.1973 87.447 16.1853 87.2958 16.0441 87.9763C16.2559 88.0519 16.6087 88.1275 16.891 88.2032Z" fill="#69C5E1"/>
<path d="M4.68222 68.467C4.75279 67.484 4.4705 66.8035 4.18822 66.1229C4.04707 65.8205 3.83537 65.5936 3.55308 65.6692C3.20023 65.7448 3.12965 66.0473 3.12965 66.3498C3.12965 66.7279 3.05908 67.1816 3.41193 67.2572C3.9765 67.4084 3.97651 68.089 4.68222 68.467Z" fill="#69C5E1"/>
<path d="M13.5741 83.8172C13.2918 83.5147 13.0096 83.3635 12.5861 83.3635C12.0216 83.8928 12.1627 84.4222 12.7979 84.7246C13.5036 84.9515 13.5741 84.3465 13.5741 83.8172Z" fill="#69C5E1"/>
<path d="M14.1387 86.9932C13.9976 86.3127 13.927 85.9346 13.3624 85.9346C13.2213 86.4639 13.6447 86.6151 14.1387 86.9932Z" fill="#69C5E1"/>
<path d="M3.76482 64.2324C3.5531 64.2324 3.48254 64.3837 3.48254 64.6105C3.48254 64.7617 3.5531 64.9886 3.69424 64.9129C3.83538 64.9129 3.97654 64.6861 3.97654 64.5349C4.04711 64.3836 3.90596 64.308 3.76482 64.2324Z" fill="#69C5E1"/>
<path d="M4.2588 69.5256C4.32937 69.6012 4.39994 69.7525 4.47051 69.7525C4.75279 69.7525 4.82336 69.45 4.75279 69.2231C4.75279 69.0719 4.61165 68.9963 4.47051 69.0719C4.32937 69.2231 4.18823 69.3744 4.2588 69.5256Z" fill="#6FC6E2"/>
<path d="M35.6755 41.2222L36.1488 40.0871C36.2441 39.7771 36.2769 39.5354 36.2473 39.362C36.2395 39.1876 36.2332 39.0459 36.2283 38.9369C36.2234 38.828 36.2067 38.6977 36.178 38.5461C36.1484 38.3727 36.0648 38.2126 35.9272 38.0659C35.8104 37.8964 35.6857 37.7928 35.5529 37.7551C35.441 37.6946 35.2187 37.6063 34.8858 37.4901L34.1651 37.4896C33.5054 37.3882 32.952 37.4675 32.505 37.7278C32.5265 38.2073 32.4515 39.2153 32.2801 40.7518L32.185 43.0165L32.0742 44.2008C32.2268 44.194 32.6138 44.0566 33.2351 43.7885L33.6753 43.3756C33.7615 43.3499 34.0232 43.098 34.4604 42.6198C34.5675 42.5713 34.6825 42.4569 34.8054 42.2767L35.1148 41.8697C35.1812 41.8886 35.2962 41.7742 35.4598 41.5267L35.6755 41.2222ZM32.2739 50.1215L32.3745 50.9032C32.4705 51.0955 32.4831 51.3788 32.4126 51.7533C32.342 52.1277 32.3438 52.4116 32.4179 52.6048C32.4345 52.9753 32.4552 53.1928 32.4799 53.2572C32.6761 53.2484 32.9664 53.1481 33.351 52.9561C33.7573 52.7632 34.0144 52.6534 34.1224 52.6267C34.2305 52.6 34.3682 52.5065 34.5358 52.3461C35.068 52.0384 35.62 51.686 36.1919 51.2891L36.9132 50.5689C37.5111 49.7777 37.9221 49.2023 38.1462 48.8429L38.316 48.2456C38.5721 47.6226 38.2737 47.0572 37.4211 46.5494C37.235 46.2956 36.8675 46.1374 36.3187 46.0746L36.286 46.0761C35.5134 45.8923 35.0627 45.8251 34.9338 45.8746L33.5099 46.2659C33.2542 46.4084 33.0174 46.4846 32.7994 46.4943C32.6033 46.5031 32.3809 46.4148 32.1324 46.2294L32.2061 47.1433C32.072 47.5643 32.0465 47.9695 32.1295 48.3589C32.2342 48.7473 32.2824 49.3349 32.2739 50.1215ZM33.9732 55.8767L33.6789 55.8898C33.4629 55.9432 33.0364 55.9295 32.3995 55.8489C31.28 55.7243 30.3708 55.4156 29.6716 54.9227C29.4677 54.7572 29.2286 54.5385 28.9543 54.2669C28.7009 53.9725 28.5717 53.7708 28.5668 53.6618C28.562 53.5528 28.5556 53.4112 28.5478 53.2368C28.5618 53.0614 28.5431 52.8876 28.4917 52.7151L28.48 52.4536C28.4087 52.3257 28.4094 52.0964 28.4819 51.7655C28.5535 51.4129 28.5626 51.1286 28.5092 50.9126C28.4529 50.6312 28.4066 50.3275 28.3701 50.0015C28.3008 49.9172 28.3228 49.676 28.436 49.2778C28.4785 46.3275 28.4935 44.7107 28.4808 44.4273L28.6003 43.4392C28.462 42.7902 28.4585 42.2225 28.5896 41.7361L28.5573 41.0169C28.5219 40.7127 28.5695 39.826 28.7003 38.3569C28.6014 38.0992 28.292 37.7746 27.7721 37.3829C27.6582 37.2788 27.5419 37.1202 27.4232 36.9071C27.3035 36.6722 27.3305 36.2998 27.5042 35.7897C27.6271 35.6094 27.9959 35.309 28.6104 34.8883C28.6481 34.7556 29.2254 34.4786 30.3422 34.0573L30.9517 33.7679C31.252 33.6452 31.8603 33.5743 32.7767 33.5551C33.281 33.598 33.6886 33.6781 33.9996 33.7952C35.1356 34.2903 36.1879 34.8656 37.1564 35.5211C37.4456 35.6392 37.6496 35.8048 37.7683 36.0178C38.1724 36.2618 38.551 36.6707 38.9043 37.2446C39.2785 37.7957 39.4907 38.1465 39.5412 38.2971C39.6814 38.9897 39.61 39.8338 39.327 40.8293C39.1969 41.3374 38.5245 42.4159 37.3098 44.0646C37.5307 44.1202 37.9095 44.2889 38.4463 44.5706C38.5156 44.6549 38.7513 44.7972 39.1534 44.9976C39.1999 45.061 39.2578 45.1349 39.3271 45.2191C39.4182 45.3024 39.487 45.3758 39.5335 45.4392L39.8024 45.5909L40.1513 46.0667L40.6607 46.4698C40.8885 46.678 41.0736 46.9099 41.2161 47.1656C41.5567 47.4561 41.7423 47.699 41.7729 47.8942L41.8661 48.5124C41.855 48.7532 41.5632 49.5525 40.9907 50.9104C40.7724 51.4006 40.4839 51.7848 40.1251 52.063L39.661 52.6735C39.538 52.8537 39.2971 53.0829 38.9383 53.361C38.6013 53.6382 38.3183 53.9021 38.0892 54.1526C37.9822 54.201 37.8122 54.3069 37.5793 54.4702C37.3682 54.6326 37.0386 54.833 36.5907 55.0714C36.1645 55.3089 35.8761 55.4529 35.7255 55.5033C35.2954 55.6536 34.7113 55.7781 33.9732 55.8767ZM49.3624 43.6885C49.435 43.3577 49.4055 42.944 49.2741 42.4476C49.1157 42.3236 48.9057 42.2675 48.6441 42.2792C48.3172 42.2939 48.0366 42.6122 47.8024 43.2342C47.4771 43.773 47.2414 44.3623 47.0953 45.0022L47.0626 45.0036C46.8639 45.9298 46.766 46.4256 46.7689 46.491C47.1215 46.5626 47.4068 46.5935 47.6248 46.5837C47.8418 46.5521 48.0871 46.421 48.3607 46.1904C48.8405 45.6884 49.1744 44.8544 49.3624 43.6885ZM49.4753 48.4009L48.27 48.5532C47.5943 48.5834 47.0573 48.542 46.6591 48.4288L46.785 49.0456C46.9315 50.8517 47.486 52.0172 48.4486 52.5419C48.7151 52.6392 48.9355 52.6839 49.1098 52.6761C49.2842 52.6683 49.5092 52.5708 49.7847 52.3838C49.868 52.2927 49.9389 52.1694 49.9975 52.0139C50.0105 51.8167 50.1155 51.7247 50.3127 51.7377C51.1556 50.5642 51.8112 50.0871 52.2797 50.3064C52.7511 50.591 52.9907 50.8206 52.9985 50.9949C53.0024 51.0821 52.9523 51.1826 52.8482 51.2965L52.857 51.4927C52.8668 51.7106 52.7427 52.1093 52.4847 52.6887C52.2485 53.2671 51.9867 53.7593 51.6991 54.1653C51.5612 54.4991 51.3752 54.7368 51.1413 54.8783C50.4634 55.3455 49.7301 55.553 48.9415 55.501C48.7662 55.487 48.6444 55.4488 48.576 55.3863C48.3997 55.3505 48.2685 55.3455 48.1822 55.3712L47.9192 55.3502C47.7231 55.359 47.5576 55.3227 47.4229 55.2414C47.1991 55.1204 47.0436 55.0618 46.9564 55.0658C46.38 54.8732 46.0239 54.7253 45.8882 54.6222C45.7744 54.5181 45.6729 54.4462 45.5837 54.4065C45.4946 54.3668 45.2773 54.1472 44.9318 53.7478C44.6377 53.5207 44.4674 53.3754 44.4209 53.312C44.2813 53.1217 44.1551 52.9854 44.0422 52.9031C43.9511 52.8198 43.8878 52.6261 43.8524 52.3219C43.7603 52.2168 43.7104 52.0771 43.7025 51.9027L43.56 51.647C43.5532 51.4945 43.4825 51.3775 43.3478 51.2962C43.2111 51.1713 43.1384 51.0107 43.1296 50.8146L43.1179 50.553C43.0288 50.5133 43.0011 50.3835 43.035 50.1636L42.9969 49.3135L42.951 49.0208L42.9408 48.7919C42.9151 48.7057 42.9285 48.5194 42.9812 48.2332L42.9354 47.9404C42.9562 47.9176 42.9811 47.7418 43.01 47.4129C43.0767 46.9512 43.1621 46.6635 43.2662 46.5496L43.253 46.2554C43.2719 46.189 43.2789 46.1013 43.274 45.9924C43.2691 45.8834 43.2855 45.7625 43.3233 45.6298C43.3828 45.4961 43.5352 44.9979 43.7805 44.1351L44.2523 42.9674C44.3903 42.6336 44.6139 42.2632 44.9233 41.8562C44.9402 41.7463 45.0186 41.5462 45.1585 41.256L45.5659 40.8446C45.6879 40.6426 45.8777 40.4921 46.1354 40.3932C46.4337 40.227 46.6591 40.1405 46.8117 40.1336L47.7213 39.9618C47.8313 39.9788 47.908 39.9862 47.9516 39.9843L48.3767 39.9652C48.8581 39.9874 49.2549 40.0679 49.5668 40.2068C50.2295 40.3737 50.7203 40.6028 51.0391 40.8943C51.7489 41.6269 52.1195 42.342 52.1507 43.0394C52.182 43.7369 52.0998 44.3412 51.9043 44.8523C51.4151 46.1191 51.0579 46.9213 50.8328 47.259C50.4727 47.9959 50.0202 48.3765 49.4753 48.4009ZM55.3402 41.193C55.8965 40.4474 56.6859 40.0298 57.7083 39.9404C59.3837 39.7998 60.6447 40.1583 61.4912 41.0158C62.3594 41.8723 62.8349 42.7356 62.9176 43.6055C63.022 44.4744 62.825 44.9528 62.3266 45.0406C61.6083 45.0946 61.1353 45.0175 60.9076 44.8093C60.7124 44.8399 60.4554 44.7095 60.1366 44.418C60.0029 44.3585 59.8173 44.1156 59.5798 43.6895L59.1835 42.8882C58.9916 42.5037 58.7639 42.2955 58.5004 42.2636C58.1793 42.409 58.0304 42.7433 58.0539 43.2664C58.187 44.2869 58.7213 45.2458 59.6569 46.143C59.6569 46.143 59.6693 46.1752 59.694 46.2396C59.7396 46.2813 59.9109 46.4483 60.2079 46.7408C62.0147 48.5599 62.9767 50.0456 63.0939 51.1979C63.1271 51.939 62.9965 52.4362 62.702 52.6897C61.8146 53.8433 60.6199 54.4755 59.1179 54.5865C57.6159 54.6975 56.3525 54.2845 55.3277 53.3476C55.0545 53.0978 54.9125 52.853 54.9017 52.6132C54.7524 52.2049 54.6966 51.9344 54.7343 51.8017C54.6416 51.1943 54.6211 50.7366 54.6728 50.4285C54.7724 49.7252 55.2685 49.3426 56.1611 49.2808C56.4881 49.2661 56.7039 49.453 56.8087 49.8414C57.1418 50.9404 57.4361 51.6588 57.6915 51.9968C57.9687 52.3339 58.3901 52.4788 58.9558 52.4316C59.6732 52.3558 59.9929 51.9374 59.9152 51.1765C59.8592 50.4146 59.4678 49.7223 58.7411 49.0997C58.5114 48.8479 58.2846 48.6615 58.0608 48.5405C57.8578 48.3967 57.7222 48.2936 57.6538 48.2311C57.6291 48.1667 57.5717 48.1037 57.4816 48.0423C57.03 47.713 56.4483 47.1603 55.7365 46.3841C55.0465 45.607 54.6641 44.8706 54.5893 44.1751C54.4464 42.9366 54.6967 41.9426 55.3402 41.193ZM70.1934 33.5498C70.1742 34.0967 70.1705 34.5009 70.1822 34.7624C70.1929 35.0022 70.1918 35.2206 70.1788 35.4178L70.2169 36.2678L70.1944 36.4982L70.2252 37.1847C70.234 37.3809 70.2318 37.5776 70.2188 37.7747L71.3529 37.4946C71.4401 37.4907 71.7537 37.422 72.2937 37.2886C72.8337 37.1553 73.3222 37.0897 73.7591 37.092C74.2168 37.0715 74.5259 37.145 74.6863 37.3125C74.8684 37.4791 74.9669 37.7258 74.9815 38.0528C75.0368 38.3124 74.9718 38.5664 74.7863 38.815L74.6643 39.017C74.5027 39.3082 74.2603 39.5047 73.9373 39.6065L72.8003 39.8212L71.3451 40.2468L70.477 40.6133C70.5232 41.1572 70.5828 41.7551 70.6557 42.4071C70.7503 43.058 70.8035 43.5143 70.8153 43.7758L70.9675 44.9812C71.3368 46.8865 71.7952 48.8316 72.3428 50.8164C72.4823 51.0067 72.644 51.4472 72.8278 52.1378L73.1201 52.8127C73.2405 53.5498 72.7994 53.9409 71.7968 53.9858C71.6224 53.9936 71.1845 53.9695 70.4831 53.9136C70.286 53.9006 69.9939 53.7171 69.6067 53.3632C69.6048 53.3196 69.4785 53.1833 69.228 52.9543L68.5395 51.4781C68.493 51.4147 68.4292 51.2101 68.3482 50.8643C68.0977 50.6352 67.8771 50.0991 67.6864 49.2559C67.6845 49.2123 67.6578 49.1043 67.6064 48.9319L67.5859 48.4742C67.4265 48.3284 67.2985 47.9083 67.2018 47.2137C67.1052 46.5192 66.9996 45.8687 66.8851 45.2623C66.847 44.4122 66.745 43.5978 66.5791 42.819L66.4815 42.1027L66.4683 41.8084C66.4803 41.5895 66.4755 41.4805 66.4537 41.4815L66.0613 41.499C65.7363 41.5573 65.4639 41.5695 65.244 41.5356C64.2849 41.5786 63.6079 41.3359 63.213 40.8076C62.9251 40.2308 62.8971 39.8499 63.129 39.6648C63.361 39.4797 63.9417 39.2789 64.8711 39.0626C65.2852 39.044 65.8129 38.8784 66.4541 38.5658C66.4297 38.0209 66.4487 37.7143 66.5112 37.646C66.5541 37.1417 66.6053 36.8227 66.6649 36.689C66.7452 36.5325 66.7929 36.3775 66.8078 36.224C66.8062 35.6999 66.9568 34.9178 67.2597 33.8778C67.368 33.3706 67.4727 33.0274 67.5739 32.8481C67.8387 32.4213 68.4213 32.2642 69.3218 32.3767C69.6953 32.4255 69.9741 32.555 70.1582 32.7651C70.2226 32.7404 70.2344 33.002 70.1934 33.5498ZM89.1606 44.461L88.9591 43.6183C88.9562 43.5529 88.9309 43.4776 88.8834 43.3924C88.8577 43.3062 88.8177 43.1442 88.7634 42.9063C88.5832 42.7834 88.4589 42.6907 88.3906 42.6282L88.2154 42.374L88.1041 42.0841C87.9922 42.0236 87.9229 41.9394 87.8962 41.8313C87.8904 41.7006 87.8424 41.6044 87.7523 41.543C87.683 41.4587 87.6251 41.3849 87.5786 41.3214C87.5311 41.2362 87.485 41.1836 87.4405 41.1638C87.2384 41.0418 86.9764 41.0426 86.6543 41.1663C86.3323 41.2899 86.1429 41.4512 86.0863 41.6503C85.7529 42.4952 85.5915 43.0375 85.6023 43.2773C85.344 44.3372 85.29 45.0821 85.4403 45.5122C85.428 46.2116 85.5581 47.1668 85.8307 48.3776L85.8469 48.7372C86.0547 48.99 86.2556 49.3305 86.4495 49.7586C86.6802 50.0322 86.8311 50.2329 86.9024 50.3607C86.9945 50.4658 87.0519 50.5288 87.0746 50.5496C87.2994 50.6924 87.4351 50.7955 87.4816 50.8589C87.6521 50.7639 87.769 50.6932 87.8325 50.6467L87.8222 50.4178C87.9273 50.3257 88.0225 50.256 88.1077 50.2085C88.0859 50.2094 88.1588 50.1297 88.3263 49.9693L88.4824 49.7985C88.7781 49.0864 88.9255 48.7195 88.9245 48.6977C88.9226 48.6541 88.9083 48.5783 88.8816 48.4703C88.7856 48.278 88.8333 48.123 89.0246 48.0052C89.0246 48.0052 89.1382 47.6179 89.3656 46.8433L89.3568 46.6472C89.3946 46.5144 89.3684 46.4173 89.2783 46.3559L89.268 46.127C89.3077 46.0379 89.3256 45.9497 89.3217 45.8625C89.3933 45.5099 89.4167 45.3013 89.392 45.2369C89.389 45.1715 89.3965 45.0948 89.4144 45.0066C89.4313 44.8966 89.4606 44.8189 89.5022 44.7733C89.5637 44.6832 89.4498 44.5791 89.1606 44.461ZM84.2412 38.4897C84.4374 38.481 84.5781 38.4528 84.6633 38.4053C84.7694 38.335 84.9512 38.2505 85.2089 38.1516C85.4883 38.0517 86.1422 38.0224 87.1705 38.0637C87.7421 38.1473 88.3869 38.4023 89.1049 38.8288C89.8398 39.1453 90.4389 39.599 90.9021 40.1897C91.5847 41.7753 91.9855 43.1661 92.1046 44.3619C92.2302 46.1909 92.1237 47.7135 91.7851 48.9299C91.3017 50.3275 90.9782 51.15 90.8145 51.3976C90.7836 51.6829 90.6259 52.0613 90.3412 52.5327C90.2322 52.5375 90.1455 52.5523 90.0811 52.5771C90.0821 52.5989 90.0196 52.6672 89.8937 52.782C89.7906 52.9177 89.6301 52.9904 89.4121 53.0002C89.1317 53.0782 88.9598 53.1405 88.8963 53.1871C88.8557 53.2544 88.7481 53.292 88.5738 53.2998L87.7593 53.4018L86.8766 53.4413C86.2881 53.4677 85.816 53.4124 85.4605 53.2754L84.4503 52.6655L84.1058 52.2878C84.0404 52.2907 83.9959 52.2709 83.9721 52.2283C83.9692 52.1629 83.9558 52.1089 83.9321 52.0663C83.7291 51.9225 83.6232 51.7525 83.6144 51.5563C83.3581 51.1965 83.2265 50.9404 83.2196 50.7878C83.2128 50.6352 83.1752 50.5277 83.1069 50.4652C83.0923 50.1383 82.9727 49.6632 82.7482 49.0399L82.6623 48.5851L82.6462 48.2254C82.6098 47.8994 82.5055 47.5219 82.3334 47.0928C82.375 47.0473 82.3697 46.9274 82.3173 46.7332C82.2948 46.2319 82.2906 45.8935 82.3046 45.7182L82.1874 45.2976C82.247 45.1639 82.2634 45.043 82.2367 44.935C82.2318 44.826 82.2572 44.6611 82.3128 44.4402L82.3026 44.2113L82.3821 43.0612C82.3753 42.9086 82.3917 42.7877 82.4314 42.6986L82.4211 42.4697C82.4647 42.4678 82.4925 42.3573 82.5046 42.1384L82.6563 41.8695L82.6773 41.6065C82.6744 41.5411 82.6606 41.4762 82.6358 41.4118L82.7773 40.914C82.7754 40.8705 82.8458 40.7363 82.9886 40.5115C82.9837 40.4025 83.0527 40.2356 83.1955 40.0108C83.1906 39.9018 83.2393 39.7686 83.3414 39.6111C83.3326 39.415 83.4413 39.1589 83.6674 38.843C83.8756 38.6153 84.0668 38.4976 84.2412 38.4897ZM96.3764 39.0928L96.4125 38.4359C96.4106 38.3923 96.428 38.2933 96.4647 38.1388C96.5233 37.9832 96.567 37.741 96.596 37.4122C96.6913 37.1021 96.7062 36.9486 96.6409 36.9515C96.7004 36.8178 96.7347 36.6088 96.7438 36.3244C96.7292 35.9975 96.768 35.6463 96.8604 35.2709C96.9518 34.8737 97.0065 34.631 97.0244 34.5428C97.0367 33.8434 97.1842 33.2362 97.4669 32.7212C97.6741 32.4717 97.8755 32.0914 98.071 31.5803C98.1624 31.1831 98.5297 30.85 99.1729 30.5809L99.552 30.2691C99.6392 30.2652 99.8116 30.2138 100.069 30.1149L101.077 29.9387L101.437 29.9226C102.853 29.8591 103.917 29.9643 104.628 30.2382L105.125 30.347L105.894 30.7057C106.385 31.4263 106.303 32.0197 105.646 32.4858C105.364 32.5203 105.015 32.5251 104.599 32.5C104.204 32.474 103.931 32.4644 103.778 32.4712C103.079 32.4589 102.508 32.6264 102.065 32.9739C101.638 33.2114 101.127 33.9769 100.53 35.2703C100.29 35.7834 100.125 36.2276 100.032 36.603C99.7405 37.4023 99.5349 38.1759 99.4155 38.9239C99.9822 38.8985 100.736 38.8975 101.676 38.9209C102.637 38.9215 103.119 38.9654 103.123 39.0526C103.565 39.1639 103.781 39.6019 103.772 40.3667C103.764 40.6728 103.667 40.9502 103.481 41.1987C103.295 41.4255 103.07 41.5229 102.807 41.491L102.087 41.5233L100.717 41.6502C99.758 41.6931 99.1145 41.711 98.7866 41.7039C98.5211 43.0917 98.4148 44.3741 98.4675 45.5511L98.9102 48.1193L98.9219 48.3809L99.1674 50.2044C99.2653 50.4403 99.3172 50.6236 99.323 50.7544L99.3704 51.0799C99.3723 51.1235 99.4 51.2533 99.4533 51.4693C99.5067 51.6853 99.5184 51.9468 99.4885 52.2539C99.4586 52.561 99.392 52.7824 99.2889 52.9181C99.2076 53.0528 99.0802 53.1349 98.9068 53.1645C98.7334 53.1941 98.3421 53.2335 97.7328 53.2826C97.2363 53.4141 96.7192 53.328 96.1815 53.0245C96.0478 52.965 95.9063 52.7311 95.7569 52.3228C95.7569 52.3228 95.7052 51.8993 95.6017 51.0521C95.6157 50.8768 95.5842 50.6598 95.507 50.4012C95.4299 50.1425 95.3979 49.9147 95.4109 49.7175L95.3372 48.8035C95.2087 48.3725 95.1778 47.9261 95.2445 47.4645L95.2 47.2044L95.1898 46.9756C95.1791 46.7358 95.2244 46.2861 95.3259 45.6263L95.3025 45.1032C95.3682 44.6198 95.4199 44.3117 95.4576 44.179C95.4489 43.9828 95.4837 43.7847 95.5621 43.5846C95.4937 43.5221 95.469 43.4577 95.4879 43.3914C95.7071 42.9229 95.8094 42.5252 95.7948 42.1983L95.7699 41.6424C94.7019 41.6903 94.0664 41.6423 93.8634 41.4985C93.3998 41.3883 93.1067 41.183 92.984 40.8827L92.8669 40.4621C92.8415 39.8954 93.2212 39.5945 94.0058 39.5593L95.7952 39.2826C95.9696 39.2748 96.1633 39.2115 96.3764 39.0928ZM114.592 44.5012C114.574 44.5894 114.571 44.7642 114.583 45.0258C114.595 45.2873 114.583 45.5172 114.548 45.7153C114.513 45.9134 114.524 46.1532 114.581 46.4346C114.685 46.823 114.892 47.2942 115.201 47.8482C115.204 47.9136 115.375 48.0807 115.715 48.3494C115.803 48.3673 115.891 48.3851 115.979 48.403C116.089 48.42 116.178 48.4487 116.245 48.4894C116.311 48.5083 116.464 48.4905 116.701 48.4362C116.938 48.3601 117.088 48.2988 117.152 48.2522C117.236 48.1829 117.394 48.0448 117.625 47.8379C117.851 47.522 118.103 47.3033 118.381 47.1816C118.778 46.7707 119.155 46.4153 119.513 46.1153C119.859 46.0343 120.087 46.0023 120.197 46.0192C120.307 46.0361 120.43 46.1179 120.568 46.2646C120.889 46.5997 120.996 47.0426 120.89 47.5934C120.743 48.2115 120.442 48.8037 119.986 49.3701C119.906 49.5266 119.749 49.6756 119.515 49.8171C119.473 49.8627 119.412 49.9637 119.332 50.1202L118.739 50.7692C118.608 50.7751 118.524 50.8443 118.486 50.9771C118.448 51.1098 118.172 51.286 117.658 51.5056C117.004 51.5349 116.423 51.4953 115.916 51.387C114.816 51.1961 114.029 50.9365 113.555 50.6083L112.917 50.2437C112.869 50.1585 112.657 50.0479 112.279 49.9119L111.831 49.4079L111.317 48.9067L110.964 48.3329C110.894 48.2486 110.843 48.0871 110.811 47.8483C110.777 47.5877 110.735 47.3712 110.684 47.1988C110.702 47.1324 110.703 46.8922 110.684 46.4781C110.719 46.2799 110.73 46.0392 110.717 45.7559C110.758 45.6885 110.748 45.4597 110.686 45.0693L110.706 44.7736L110.685 44.3158C110.67 43.9671 110.697 43.5946 110.766 43.1984C110.836 42.8021 110.905 42.3841 110.972 41.9443C110.96 41.6609 110.981 41.4088 111.037 41.1879C110.963 40.9947 110.952 40.5146 111.005 39.7479L110.996 39.5517C110.986 39.3337 110.99 39.1589 111.005 39.0271L110.995 38.7983L110.971 36.801C110.968 36.7356 111.01 36.4498 111.097 35.9436C111.085 35.682 111.164 35.2526 111.334 34.6553C111.455 34.4315 111.512 34.2433 111.505 34.0907C111.5 33.9818 111.523 33.7623 111.574 33.4324C111.677 33.2968 111.74 32.9991 111.763 32.5394C111.785 32.5385 111.829 32.2963 111.894 31.8128C111.883 31.5513 111.989 31.2517 112.215 30.914C112.252 30.7813 112.442 30.6199 112.783 30.4299L112.815 30.4284C112.9 30.3809 113.225 30.3118 113.789 30.221C114.05 30.2093 114.392 30.2814 114.814 30.4372C114.923 30.4323 115.235 30.5821 115.751 30.8866C116.027 31.18 115.982 31.8809 115.616 32.9893C115.625 33.1855 115.551 33.4836 115.394 33.8838C115.403 34.0799 115.381 34.3103 115.327 34.5747C115.336 34.7709 115.229 35.5619 115.007 36.9478C114.806 38.3109 114.668 40.8287 114.592 44.5012ZM127.913 46.1977C127.909 46.1105 127.928 46.0332 127.968 45.9659C128.031 45.8976 128.113 45.7738 128.214 45.5945C128.207 45.442 128.292 44.8922 128.468 43.9452C128.63 43.1735 128.83 42.28 129.068 41.2647C129.131 41.1964 129.158 41.075 129.15 40.9007L129.408 39.3494C129.384 38.8045 129.511 38.4712 129.789 38.3495C129.998 38.1218 130.3 38.0536 130.697 38.145C131.095 38.2364 131.509 38.4581 131.939 38.8101C132.029 38.8498 132.117 38.8677 132.204 38.8638L132.679 39.2356C132.64 39.3248 132.638 39.7726 132.674 40.579C132.709 41.3637 132.741 41.8427 132.771 42.0161L132.796 42.5719C132.809 42.8553 132.828 43.0401 132.853 43.1263L132.871 43.5186L132.866 44.1413C132.973 44.5733 133.012 45.2049 132.984 46.0361L133.029 47.0496C133.01 47.116 133.015 47.2249 133.044 47.3765C133.072 47.5063 133.1 47.647 133.128 47.7986C133.108 47.8432 133.101 47.9309 133.107 48.0617L133.119 48.3232C133.174 48.5828 133.193 48.7567 133.175 48.8449L133.284 49.8228C133.383 50.0804 133.476 50.4366 133.562 50.8914C133.545 51.0014 133.554 51.2085 133.59 51.5126C133.492 51.7791 133.247 51.9211 132.855 51.9387C132.461 51.9126 132.161 51.8059 131.956 51.6186C131.846 51.6016 131.702 51.5426 131.522 51.4414C131.457 51.4444 131.357 51.4161 131.224 51.3565C131.109 51.2306 130.996 51.1483 130.885 51.1096C130.221 50.4187 129.813 49.607 129.662 48.6746C129.617 48.633 129.592 48.5795 129.589 48.5141C129.435 48.9578 129.054 49.7174 128.447 50.793C128.24 51.0643 128.097 51.2673 128.015 51.402C127.935 51.5584 127.874 51.6595 127.832 51.705C127.693 52.017 127.237 52.0702 126.464 51.8646C126.132 51.7703 125.922 51.725 125.835 51.729L124.808 51.4801C124.363 51.2817 123.969 51.0154 123.626 50.6813C123.539 50.6852 123.439 50.646 123.326 50.5637C123.212 50.4596 123.142 50.3645 123.117 50.2782L122.696 49.6746C122.424 49.4466 122.189 49.0858 121.993 48.5923C121.959 48.3317 121.916 48.1043 121.864 47.9101L121.855 47.7139L121.812 47.4866L121.841 46.6663L122.055 44.8549C122.138 44.7638 122.174 44.5984 122.163 44.3586L122.234 43.733C122.336 43.5756 122.382 43.3879 122.372 43.1699C122.413 43.1025 122.439 42.9485 122.45 42.7078C122.511 42.6177 122.539 42.4963 122.532 42.3437C122.547 42.1902 122.6 41.9148 122.691 41.5176C122.81 41.2502 122.86 40.8876 122.839 40.4299C122.818 39.9504 122.88 39.4016 123.027 38.7834C123.437 38.1754 124.073 37.994 124.936 38.2393C125.089 38.2325 125.322 38.3312 125.637 38.5355C125.973 38.717 126.219 38.8371 126.374 38.8956C126.556 39.0622 126.671 39.1881 126.719 39.2733C126.635 39.3644 126.586 39.4867 126.571 39.6403C126.02 41.9582 125.709 43.7957 125.639 45.153C125.628 45.3937 125.587 45.7013 125.516 46.0757C125.468 46.4492 125.419 46.8336 125.371 47.2288C125.244 48.2829 125.475 48.8185 126.066 48.8357C126.285 48.8478 126.49 48.7949 126.681 48.6771C126.872 48.5594 126.975 48.4128 126.989 48.2375C127.547 47.0331 127.855 46.3532 127.913 46.1977ZM136.294 39.3358C136.282 39.0524 136.413 38.8063 136.687 38.5974C136.686 38.5756 136.685 38.5538 136.684 38.532C136.678 38.3795 136.829 38.0997 137.138 37.6927C137.469 37.2848 137.655 37.0362 137.694 36.9471C138.161 36.6422 138.47 36.4646 138.621 36.4142C138.797 36.45 138.918 36.4664 138.983 36.4635L139.049 36.4605C139.674 36.2796 140.394 36.2692 141.209 36.4293C142.046 36.5883 142.64 36.9112 142.989 37.3979C143.178 37.717 143.372 38.1451 143.571 38.6822C143.866 39.4334 144.022 39.9833 144.038 40.3321C144.194 40.8929 144.228 41.4155 144.141 41.8999L144.123 42.2283C144.127 42.3155 144.076 42.4052 143.971 42.4972C143.866 42.5893 143.737 42.6387 143.584 42.6456C143.453 42.6296 143.335 42.6895 143.232 42.8252C143.128 42.939 142.902 43.0038 142.553 43.0194C142.226 43.034 142.047 42.9438 142.017 42.7486C141.95 42.7297 141.838 42.6583 141.679 42.5343C141.543 42.4094 141.473 42.3143 141.47 42.2489L141.296 42.0273C141.294 41.9838 141.248 41.9203 141.157 41.837C140.943 41.4535 140.853 41.1518 140.887 40.9318C140.97 40.3603 140.989 40.0536 140.944 40.012C140.929 39.6851 140.806 39.363 140.573 39.0458C140.55 39.025 140.506 39.016 140.441 39.019C140.396 38.9991 140.33 38.9803 140.242 38.9624C140.191 38.8118 140.144 38.7374 140.101 38.7394C139.95 38.7898 139.792 38.917 139.626 39.121C139.359 39.9847 139.199 40.5597 139.147 40.846L139.04 42.8491L139.107 44.3531C139.186 45.1358 139.295 45.6114 139.433 45.7799C139.437 45.8671 139.488 46.0177 139.585 46.2318C139.619 46.5142 139.87 47.0052 140.338 47.705L140.511 47.8938C140.633 48.1941 140.826 48.3384 141.087 48.3267C141.349 48.3149 141.705 47.9932 142.158 47.3614C142.133 47.297 142.263 47.0291 142.548 46.5577C142.834 46.1299 143.306 45.945 143.964 46.0029C144.249 46.0338 144.398 46.1909 144.411 46.4742C144.442 46.6694 144.398 47.1628 144.281 47.9543C144.073 48.182 143.973 48.4048 143.983 48.6228C143.848 49.022 143.782 49.2434 143.784 49.2869C143.718 49.2899 143.654 49.3255 143.592 49.3938L143.443 49.7281C143.356 49.732 143.303 49.778 143.285 49.8662C143.058 50.1603 142.901 50.3093 142.814 50.3132C142.752 50.3815 142.579 50.422 142.295 50.4347C141.889 50.6276 141.588 50.7285 141.392 50.7373L140.837 50.7949L140.472 50.6802L140.176 50.6607C139.91 50.5634 139.7 50.5182 139.548 50.525C139.418 50.5527 139.319 50.5462 139.252 50.5055C139.185 50.4866 139.096 50.4361 138.983 50.3538C138.712 50.1475 138.532 50.0463 138.445 50.0502C138.38 50.0532 138.257 49.9932 138.077 49.8702C137.9 49.8344 137.755 49.7645 137.641 49.6604L137.496 49.3393C137.533 49.1847 137.507 49.0985 137.419 49.0806C137.136 49.0933 136.97 49.0462 136.921 48.9391L136.713 48.6864C136.706 48.512 136.608 48.2871 136.421 48.0115L135.976 46.8521C135.93 46.8104 135.927 46.7342 135.966 46.6232L135.939 46.0347L135.433 43.5021L135.412 43.0444C135.576 42.3163 135.658 41.9414 135.657 41.9196C135.613 41.4411 135.703 41.0112 135.927 40.6299C135.908 40.2157 136.031 39.7844 136.294 39.3358ZM146.889 29.8522C146.886 29.7868 146.893 29.71 146.911 29.6218L146.864 28.5756C146.883 28.5093 146.89 28.4216 146.885 28.3126C146.879 28.1818 146.896 28.0719 146.936 27.9827C146.923 27.6994 147.031 27.4324 147.26 27.1819C147.34 27.0037 147.455 26.8893 147.605 26.8389C147.884 26.7172 148.433 26.78 149.252 27.0272C149.229 27.0064 149.251 27.0163 149.319 27.057C149.407 27.0749 149.462 27.0833 149.484 27.0824C149.703 27.0944 149.897 27.2823 150.066 27.646C150.076 27.8857 150.155 28.6684 150.302 29.9941C150.449 31.3198 150.508 32.4091 150.481 33.2621L150.496 33.589C150.505 35.2485 150.534 36.6449 150.585 37.7783C150.547 37.9111 150.554 38.0527 150.604 38.2034C150.572 38.4669 150.579 39.0999 150.624 40.1026L150.869 39.7312L151.018 39.3969C151.015 39.3315 151.055 39.2533 151.139 39.1622C151.221 39.0493 151.272 38.9706 151.292 38.926C151.311 38.8597 151.341 38.8037 151.383 38.7582C151.423 38.6908 151.453 38.6349 151.473 38.5903C151.514 38.523 151.629 38.4195 151.82 38.2799C151.817 38.2146 151.93 38.0675 152.16 37.8388L153.579 35.8752L154.403 35.2486C154.484 35.1139 154.697 34.9951 155.042 34.8923C155.408 34.7668 155.744 34.708 156.05 34.7162C156.368 34.5053 156.852 34.5928 157.503 34.9787C157.844 35.2692 157.872 35.6501 157.587 36.1215C157.078 36.9524 156.772 37.4356 156.669 37.5713L155.351 39.596L154.987 40.2347C154.268 41.2497 153.815 41.8597 153.627 42.0647C153.461 42.2468 153.391 42.4028 153.419 42.5326C153.715 42.8033 153.963 42.9778 154.163 43.0562C154.255 43.1613 154.336 43.256 154.405 43.3402C154.495 43.4017 154.541 43.4433 154.542 43.4651L156.181 44.9642C157.027 45.7999 157.659 46.4923 158.076 47.0415L159.655 48.6415C160.035 48.8429 160.231 49.0634 160.241 49.3032C160.252 49.543 160.054 49.7593 159.648 49.9522C159.523 50.0889 159.121 50.1396 158.443 50.1045C157.989 50.2122 157.651 50.2164 157.428 50.1172C156.817 50.1227 156.219 49.942 155.634 49.5751C155.251 49.3083 155.057 49.1096 155.051 48.9788C154.935 48.8311 154.82 48.7052 154.706 48.6011C154.568 48.4326 154.451 48.274 154.357 48.1253C154.179 48.046 153.948 47.7724 153.665 47.3046C153.463 47.1826 153.362 47.1107 153.361 47.0889C153.359 47.0453 153.29 46.9719 153.155 46.8688C153.019 46.7657 152.929 46.7042 152.884 46.6844C152.88 46.5972 152.683 46.333 152.292 45.8919C152.158 45.8324 152.045 45.7501 151.953 45.645C151.882 45.5171 151.857 45.4527 151.879 45.4517L151.223 44.6949L150.943 44.3143C151.018 45.9708 151.256 47.6309 151.658 49.2946C151.717 49.6414 151.748 49.8475 151.751 49.9128C151.776 49.9773 151.789 50.0313 151.791 50.0749C151.816 50.1393 151.829 50.1824 151.83 50.2042L151.596 50.1163C151.664 50.157 151.735 50.2739 151.809 50.4672C151.883 50.6604 151.911 50.7902 151.892 50.8566C151.705 51.0833 151.581 51.2309 151.518 51.2992C151.478 51.3665 151.338 51.4165 151.099 51.449C150.882 51.4806 150.761 51.4532 150.735 51.367C150.334 51.1884 150.099 51.0679 150.031 51.0055C149.899 50.9895 149.633 50.8923 149.232 50.7137C149.206 50.6275 149.17 50.5635 149.125 50.5219C148.923 50.3999 148.763 50.2433 148.645 50.052C148.556 50.0123 148.451 49.8641 148.33 49.6074C148.118 49.2457 148.001 48.8468 147.982 48.4109C147.931 48.2385 147.893 48.1419 147.871 48.1211C147.848 48.1002 147.833 48.0135 147.826 47.861L147.69 47.0153C147.614 46.7785 147.594 46.5719 147.63 46.3956L147.443 45.8798L147.326 44.7384L147.371 44.2778C147.231 44.0875 147.208 43.8046 147.3 43.4292L147.291 43.233C147.268 43.1904 147.237 42.9952 147.2 42.6474C147.162 42.2997 147.153 42.0926 147.172 42.0262C147.191 41.9599 147.198 41.8831 147.194 41.7959C147.137 41.4927 147.103 41.2212 147.092 40.9815L147.076 40.6218C146.87 38.4471 146.765 37.3379 146.763 37.2943L146.722 36.3789C146.694 36.2273 146.688 35.8671 146.707 35.2985C146.747 34.7289 146.748 34.2702 146.711 33.9224C146.695 33.5737 146.707 33.3547 146.747 33.2656C146.738 33.0694 146.751 32.8723 146.786 32.6741L146.77 32.3145C146.788 32.2481 146.801 32.0401 146.807 31.6904L146.889 29.8522ZM164.997 47.3539C165.053 47.133 165.206 46.8968 165.457 46.6453C165.729 46.3711 166.006 46.2276 166.289 46.2149C166.573 46.2022 166.821 46.1474 167.036 46.0505C167.25 45.9535 167.444 45.9011 167.618 45.8933C167.814 45.8845 168.111 45.9258 168.508 46.0172C168.926 46.0859 169.201 46.1282 169.333 46.1441C169.486 46.1591 169.607 46.1755 169.695 46.1934C169.805 46.2103 169.907 46.2822 170 46.4091C170.115 46.535 170.177 46.696 170.185 46.8922C169.924 48.3672 169.442 49.3169 168.741 49.7415L167.767 49.9489C167.484 49.9616 167.161 49.8232 166.798 49.5336C166.098 49.4995 165.742 49.3516 165.73 49.0901C165.728 49.0465 165.601 48.8884 165.349 48.6158C165.096 48.3432 164.966 48.1197 164.958 47.9453C164.95 47.7709 164.963 47.5738 164.997 47.3539ZM169.62 25.4924L169.436 27.9577C169.398 29.0732 169.284 31.164 169.094 34.2301C168.904 37.2963 168.834 39.3851 168.883 40.4967C168.932 41.5866 169.029 42.292 169.175 42.6131C168.954 43.038 168.658 43.2587 168.287 43.2753C168.091 43.2841 167.926 43.2696 167.794 43.2319C167.661 43.1941 167.573 43.1763 167.529 43.1782L167.399 43.1841L167.266 43.1572C166.73 42.395 166.415 41.7102 166.322 41.1029C165.912 40.2258 165.679 39.6684 165.625 39.4306C165.592 39.17 165.54 38.9976 165.471 38.9133C165.365 38.0008 165.31 37.5119 165.307 37.4465L165.245 36.0733C165.308 35.5245 165.326 34.9558 165.3 34.3673L165.278 33.8769C165.259 33.441 165.317 32.805 165.455 31.9689C165.591 31.111 165.647 30.4097 165.623 29.8647C165.597 29.298 165.731 28.6368 166.025 27.8811C166.341 27.1244 166.546 26.591 166.641 26.281C166.758 25.97 166.836 25.7481 166.874 25.6154C166.911 25.4827 166.96 25.3604 167.021 25.2484C167.122 25.0692 167.26 24.9757 167.434 24.9679C167.755 24.8224 167.981 24.7468 168.112 24.7409C169.093 24.697 169.596 24.9475 169.62 25.4924Z" fill="#15313D"/>
</svg>
